<svg width="32" height="32" viewBox="0 0 32 32" xmlns="http://www.w3.org/2000/svg"><style>@media (prefers-color-scheme: dark) {path:first-of-type {fill: #ff5a5a;}}</style><path d="M8.481 15.982c-4.596 5.566 7.02 15.982 8.958 8.476 1.21-5.088-4.358-12.84-9.44-8.236" fill="#C82E2E"/><path d="M27.921 2.001c.242-2.661-2.177-2.42-3.386-.725l-.484-.242a3.339 3.339 0 0 0 3.87.967ZM17.53 4.231c1.836-.9 3.74-1.682 5.664-2.463-2.053.36-4.065.93-6.004 1.698a24.435 24.435 0 0 0-5.525 3.014c-.424.317-.84.647-1.236 1.002s-.78.724-1.14 1.116a13.365 13.365 0 0 0-1.884 2.581c-.52.931-.903 1.932-1.14 2.972a10.448 10.448 0 0 0-.223 3.129 21.5 21.5 0 0 1 .126-.767 13.58 13.58 0 0 1 .601-2.216c.345-.944.8-1.846 1.355-2.685a17.224 17.224 0 0 1 4.178-4.275 33.248 33.248 0 0 1 5.228-3.106ZM5.65 24.044c.054-.29.109-.58.15-.874a16.34 16.34 0 0 0-1.478 3.523c-.084.31-.16.632-.214.954-.06.33-.094.664-.106.998A4.43 4.43 0 0 0 4.09 29.7a2.85 2.85 0 0 0 .24.68l.036.066.034.06a2.823 2.823 0 0 0 1.017 1.012c.32.18.666.308 1.025.381.339.07.683.103 1.029.1.17 0 .337-.004.502-.018.165-.013.331-.032.493-.055a10.176 10.176 0 0 0 1.882-.468c.303-.11.598-.224.892-.352a9.75 9.75 0 0 0 .858-.423c-.282.038-.56.08-.836.122l-.104.016c-.311.046-.621.09-.93.127a16.97 16.97 0 0 1-1.83.144 6.348 6.348 0 0 1-1.727-.178 2.69 2.69 0 0 1-.726-.303 1.796 1.796 0 0 1-.63-.63l-.03-.05-.02-.036-.024-.052a2.04 2.04 0 0 1-.132-.376 3.81 3.81 0 0 1-.101-.816c-.007-.597.036-1.194.129-1.784.088-.606.204-1.216.322-1.83l.18-.927.012-.066Zm6.701-12.05c.249-.242.519-.461.807-.655a6.98 6.98 0 0 1 .912-.515 8.8 8.8 0 0 1 1.998-.654 12.384 12.384 0 0 1 4.212-.087 13.36 13.36 0 0 1 2.072.47c.682.21 1.345.48 1.98.807.644.33 1.25.729 1.808 1.189a7.79 7.79 0 0 1 1.483 1.627c.206.31.386.639.537.98a5.81 5.81 0 0 1 .422 3.307 7.24 7.24 0 0 1-.685 2.088 9.157 9.157 0 0 1-.54.938c-.198.298-.41.587-.637.864a12.837 12.837 0 0 1-3.188 2.755c-.594.367-1.217.684-1.864.946-.323.13-.651.242-.983.345a8.52 8.52 0 0 1-1.01.231 13.068 13.068 0 0 0 3.563-1.954 13.775 13.775 0 0 0 2.822-2.835 9.898 9.898 0 0 0 .99-1.692 6.623 6.623 0 0 0 .535-1.832 5.019 5.019 0 0 0-.39-2.732 5.536 5.536 0 0 0-.456-.822 6.846 6.846 0 0 0-1.274-1.415 9.552 9.552 0 0 0-1.605-1.103 13.663 13.663 0 0 0-7.708-1.567c-.67.068-1.33.206-1.97.412a7.137 7.137 0 0 0-.94.381c-.31.15-.608.326-.89.524Zm6.396 17.767c.048.01.096.018.145.023l-.005-.279-.005-.255a2.724 2.724 0 0 1-.217-.352 7.662 7.662 0 0 1-.353-.787l-.078-.198a13.21 13.21 0 0 0-.27-.649 4.325 4.325 0 0 0-.224-.43 1.773 1.773 0 0 0-.396-.168 1.277 1.277 0 0 0-.144-.029v.276c-.002.09-.005.17-.01.251.07.119.134.24.19.366.093.202.177.416.263.635l.034.087.02.05.018.045c.111.29.24.575.383.852.068.13.147.255.227.382l.022.035c.084.043.172.079.262.107l.137.038Zm-3.001-1.674a.985.985 0 0 1 .07.025l.042.015.101.04c.068.026.13.052.19.08.02.065.048.126.076.189l.033.074c.08.174.166.348.254.526v.001l.029.058.021.042c.072.146.146.294.215.446.043.094.085.189.124.286a1.881 1.881 0 0 1-.19.403 4.99 4.99 0 0 1-.404-.161 7.38 7.38 0 0 0-.114-.262 19.48 19.48 0 0 0-.256-.527 17.204 17.204 0 0 1-.324-.682c-.022-.05-.043-.1-.067-.15a1.62 1.62 0 0 1 .08-.2l.051-.1.036-.053a.478.478 0 0 1 .033-.05Z" fill="#2C6C60"/></svg>