<svg viewBox="0 0 569 71" xmlns="http://www.w3.org/2000/svg">
<path d="M325.5 0.5V67H335.5V24.5L381.5 71V4.5H371V47L325.5 0.5ZM451.408 26.7231C452.569 29.5552 453.15 32.543 453.15 35.6865C453.15 38.8018 452.569 41.7754 451.408 44.6074C450.275 47.4111 448.633 49.9175 446.48 52.1265C444.3 54.3354 441.836 56.0205 439.089 57.1816C436.37 58.3428 433.496 58.9233 430.465 58.9233C427.378 58.9233 424.461 58.3428 421.714 57.1816C418.967 56.0205 416.518 54.3354 414.365 52.1265C412.213 49.9175 410.57 47.4111 409.438 44.6074C408.305 41.8037 407.738 38.8301 407.738 35.6865C407.738 32.5146 408.305 29.5127 409.438 26.6807C410.57 23.8486 412.213 21.3423 414.365 19.1616C416.518 16.9526 418.967 15.2676 421.714 14.1064C424.49 12.9453 427.407 12.3647 430.465 12.3647C433.524 12.3647 436.427 12.9595 439.174 14.1489C441.949 15.3101 444.385 16.981 446.48 19.1616C448.633 21.3706 450.275 23.8911 451.408 26.7231ZM461.179 48.2183C462.85 44.2817 463.685 40.1045 463.685 35.6865C463.685 31.2969 462.85 27.1338 461.179 23.1973C459.536 19.2324 457.129 15.6782 453.957 12.5347C450.785 9.44775 447.188 7.09717 443.167 5.48291C439.174 3.86865 434.94 3.06152 430.465 3.06152C425.962 3.06152 421.7 3.86865 417.679 5.48291C413.657 7.09717 410.061 9.44775 406.889 12.5347C403.717 15.6499 401.31 19.1758 399.667 23.1123C398.024 27.0488 397.203 31.2402 397.203 35.6865C397.203 40.1611 398.024 44.3525 399.667 48.2607C401.31 52.1689 403.717 55.6665 406.889 58.7534C410.004 61.812 413.586 64.1768 417.636 65.8477C421.714 67.4902 425.991 68.3115 430.465 68.3115C434.883 68.3115 439.103 67.4902 443.125 65.8477C447.146 64.2051 450.757 61.8403 453.957 58.7534C457.129 55.6665 459.536 52.1548 461.179 48.2183ZM534.031 4.46387V67H568.5V57H543V38.5H568.5V29.5H543V14H568.5V4.46387H534.031ZM13.9004 31.2529H10.0347V13.4111H13.9004C18.2184 13.4111 18.8079 13.9035 19.9868 14.8882C20.2074 15.0725 20.4486 15.274 20.7388 15.4927C22.5796 16.8521 23.5 19.231 23.5 22.6294C23.5 25.7446 22.4946 27.9678 20.4839 29.2988C20.1199 29.538 19.8299 29.7553 19.5693 29.9505C18.4103 30.8188 17.8308 31.2529 13.9004 31.2529ZM12.5835 58.7378H10.0347V38.8994H12.5835H15.6421C17.6812 38.8994 19.3096 39.0127 20.5273 39.2393C21.7734 39.4658 22.8779 39.8198 23.8408 40.3013C25.3701 41.1226 26.5454 42.2695 27.3667 43.7422C28.188 45.2148 28.5986 46.9424 28.5986 48.9248C28.5986 50.5957 28.2588 52.125 27.5791 53.5127C26.8994 54.9004 25.9365 56.0049 24.6904 56.8262C23.6709 57.5342 22.2832 58.0298 20.5273 58.313C18.7715 58.5962 16.1235 58.7378 12.5835 58.7378ZM0.136719 4.5V67.1914H14.4136C20.3608 67.1914 24.5947 66.8374 27.1152 66.1294C29.6357 65.4214 30.9277 64.2036 32.627 62.4761C32.728 62.3768 32.8309 62.2761 32.9351 62.1742C34.495 60.6476 36.3601 58.8225 37.1831 56.6987C38.061 54.4331 38.5 52.04 38.5 49.5195C38.5 45.3564 37.4521 41.9155 35.3564 39.1968C33.2891 36.4497 28.4429 34.293 24.8179 33.7266C27.7349 32.8486 29.1401 31.3052 30.6694 29.0962C32.1987 26.8589 32.5645 24.4824 32.5645 21.1689C32.5645 18.3936 32.0264 15.8589 30.9502 13.5649C29.9023 11.271 28.4155 9.41602 26.4897 8C26.3367 7.88738 26.1844 7.77385 26.032 7.66025C24.6901 6.65983 23.3416 5.65452 21.4087 5.22217C19.2847 4.74072 15.9854 4.5 11.5107 4.5H0.136719ZM97.0176 4.5H107V45C107 50.6074 108.289 52.5923 110.866 55.4243C113.472 58.228 115.764 59 120.918 59C126.044 59 127.515 58.228 130.092 55.4243C132.697 52.5923 134 50.6074 134 45V4.5H144.11V43.6997C144.11 52.1108 141.383 57.8086 137.135 62C132.887 66.1631 129.471 68.8481 120.918 68.8481C112.365 68.8481 108.17 66.1631 103.951 62C99.731 57.8369 97.0176 52.1392 97.0176 43.6997V4.5ZM55 67.1914V5H65.1104V57.5H83.5V67.1914H55ZM252.898 31.2529H256.764C260.694 31.2529 261.274 30.8188 262.433 29.9505C262.693 29.7553 262.983 29.538 263.347 29.2988C265.358 27.9678 266.363 25.7446 266.363 22.6294C266.363 19.231 265.443 16.8521 263.602 15.4927C263.312 15.274 263.071 15.0725 262.85 14.8882C261.671 13.9035 261.082 13.4111 256.764 13.4111H252.898V31.2529ZM252.898 58.7378H255.447C258.987 58.7378 261.635 58.5962 263.391 58.313C265.146 58.0298 266.534 57.5342 267.554 56.8262C268.8 56.0049 269.763 54.9004 270.442 53.5127C271.122 52.125 271.462 50.5957 271.462 48.9248C271.462 46.9424 271.051 45.2148 270.23 43.7422C269.409 42.2695 268.233 41.1226 266.704 40.3013C265.741 39.8198 264.637 39.4658 263.391 39.2393C262.173 39.0127 260.544 38.8994 258.505 38.8994H255.447H252.898V58.7378ZM243 67.1914V4.5H254.374C258.849 4.5 262.148 4.74072 264.272 5.22217C266.205 5.65452 267.553 6.65983 268.895 7.66025L268.897 7.66147L268.898 7.66237L268.899 7.66271C269.05 7.77549 269.201 7.88819 269.353 8C271.279 9.41602 272.766 11.271 273.813 13.5649C274.89 15.8589 275.428 18.3936 275.428 21.1689C275.428 24.4824 275.062 26.8589 273.533 29.0962C272.003 31.3052 270.598 32.8486 267.681 33.7266C271.306 34.293 276.152 36.4497 278.22 39.1968C280.315 41.9155 281.363 45.3564 281.363 49.5195C281.363 52.04 280.924 54.4331 280.046 56.6987C279.223 58.8225 277.358 60.6476 275.798 62.1742L275.785 62.1868L275.596 62.3727L275.49 62.4761C273.791 64.2036 272.499 65.4214 269.979 66.1294C267.458 66.8374 263.224 67.1914 257.277 67.1914H243ZM164 67V4.46387H198.469V14H172.969V29.5H198.469V38.5H172.969V57H198.469V67H164ZM485.5 48L476 49.9414C477.06 54.5247 479.591 61.5365 483 64C486.438 66.4635 491.147 68.6758 496.504 68.6758C502.892 68.6758 506.962 66.9284 510.715 63.4336C514.467 59.9102 516.344 55.1693 516.344 49.2109C516.344 45.1146 516.184 40.7057 513.863 37.9844C511.543 35.2344 507.275 32.4271 501.059 29.5625C500.743 29.4193 500.314 29.2188 499.77 28.9609C492.665 25.6953 489 23.7812 489 20C489 17.5938 489.915 15.0651 491.52 13.6328C493.049 12.2911 494.352 12.2942 496.772 12.3C496.935 12.3004 497.103 12.3008 497.277 12.3008C499.225 12.3008 500.76 12.9427 502.25 13.8594C503.768 14.776 505.158 16.2227 506.418 18.1992L514.988 13.8203C513.785 10.4688 511.622 7.90495 508.5 6.12891C505.378 4.32422 501.918 3 497.277 3C491.634 3 487.194 4.58984 483.699 7.76953C480.233 10.9492 478.5 14.7786 478.5 19.9062C478.5 23.8594 479.646 27.2109 481.938 29.9609C484.106 32.5043 488.825 34.7997 495.092 37.8485C495.53 38.0619 495.976 38.2789 496.43 38.5C496.888 38.7005 497.547 39.0156 498.406 39.4453C504.536 42.3385 505.859 45.5156 505.859 49.2109C505.859 52.0469 504.957 55.0404 503.152 56.7305C501.376 58.4206 499.97 59.2656 496.934 59.2656C493.725 59.2656 491.09 58.5352 489.027 57.0742C487.384 55.8871 486.611 52.6116 485.973 49.9094C485.811 49.2211 485.657 48.5699 485.5 48Z" fill="currentColor"/>
</svg>
