<svg viewBox="0 0 96 14" xmlns="http://www.w3.org/2000/svg">
<path d="M24.3999 13.9L28.3999 2.39998L32.3 13.9H33.2L28.3999 0L23.5 13.9H24.3999ZM95.3 7.10005C95.3 10.8 92.1 13.9 88.4 13.9C84.7 13.9 81.5 10.8 81.5 7.10005C81.5 3.40005 84.6 0.300049 88.4 0.300049C92.1 0.300049 95.3 3.40005 95.3 7.10005ZM82.4 7.10005C82.4 10.4 85.1 13.1 88.4 13.1C91.7 13.1 94.4 10.3 94.4 7.10005C94.4 3.80005 91.7 1.10005 88.4 1.10005C85.1 1.10005 82.4 3.90005 82.4 7.10005ZM0.799999 6.8V1.3H6V0.5H0V13.8H0.799999V7.6H5.8V6.8H0.799999ZM13.5008 7.5L17.8008 13.8H18.8008L14.5008 7.6C16.7008 7.6 18.3008 6.4 18.3008 4.1C18.3008 2.9 18.0008 1.9 17.0008 1.2C16.1008 0.500001 15.1008 0.5 14.0008 0.5H12.3008V13.8H13.1008V7.5H13.5008ZM16.4008 6.1C15.8008 6.7 14.9008 6.7 14.1008 6.7H13.0008V1.3H13.5008C14.3008 1.3 15.2008 1.3 15.9008 1.6C16.8008 2 17.3008 3 17.3008 4C17.3008 4.8 17.0008 5.6 16.4008 6.1ZM41.3004 13.8H40.5004V1.3H36.4004V0.5H45.4004V1.3H41.3004V13.8ZM50.8 6.8V1.3H56.3V0.5H50V13.8H56.3V13H50.8V7.6H56.2V6.8H50.8ZM63.5016 13H67.5016V13.8H62.6016V0.5H63.4016V13H63.5016ZM77.7008 13H73.7008H73.6008V0.5H72.8008V13.8H77.7008V13Z" fill="currentColor"/>
</svg>
