<svg viewBox="0 0 1250 336" xmlns="http://www.w3.org/2000/svg">
<path fill-rule="evenodd" clip-rule="evenodd" d="M1056.74 166.047L1026.74 218.372H1222.09L1250 166.047H1056.74ZM971.628 0L838.605 203.721L862.791 251.163L916.279 174.651H962.791L859.07 335.814H920.93L1140.23 0H971.628ZM996.744 56.9767L951.163 127.442H991.163L1035.81 56.9767H996.744ZM963.023 0H867.907L683.488 184.186L650.465 281.395L790.698 155.349L719.767 335.814H777.907L861.395 118.605H827.907L963.023 0ZM613.023 0L596.744 55.814H742.791L833.953 0H613.023ZM551.163 95.814L534.884 149.767H626.046L493.953 335.814H560.93L744.186 95.814H551.163ZM0 241.395L154.419 0H218.605L135.349 118.605H173.488L89.7675 335.814H45.1163L106.047 165.116L40.4651 260.465L0 241.395ZM230 0L96.2791 335.814H134.419L192.558 214.884L200.465 234.419L146.046 335.814H167.442H174.884H192.558L217.674 288.837L233.488 335.814H257.674L269.279 293.837L245.581 237.209L328.372 95.814H245.581L268.372 55.814H334.419L380.93 0H230ZM224.651 142.791L219.07 152.093L228.372 176.279L247.907 142.791H224.651ZM390.93 0L367.674 55.814H432.791L399.07 95.814H331.86L260.465 335.814H466.046L541.395 95.814H449.767L490.698 55.814H552.558L602.325 0H390.93ZM361.395 142.326L320 286.047H334.419L374.419 142.326H361.395ZM421.86 285.581L463.721 142.326H474.884L434.884 285.581H421.86ZM412.093 140.93L407.907 155.349H422.558L427.907 140.93H412.093ZM388.372 220.93L391.628 205.581H406.977L404.186 220.93H388.372ZM374.419 267.674L370.232 286.047H385.349L390 267.674H374.419Z" fill="currentColor"/>
</svg>
