<svg viewBox="0 0 1788 961" fill="none" xmlns="http://www.w3.org/2000/svg">
<path d="M134.47 479.601C-3.43898 646.623 345.156 959.196 403.295 733.958C439.587 581.266 272.523 348.622 120.025 486.814" fill="#C82E2E"/>
<path fill-rule="evenodd" clip-rule="evenodd" d="M616.232 38.2769C652.524 -12.5561 725.108 -19.8178 717.849 60.0626C697.946 68.3712 675.892 70.0323 654.969 64.7994C634.046 59.566 615.37 47.7174 601.716 31.0152L616.232 38.2769ZM575.971 53.0435C518.218 76.4991 461.095 99.9547 405.98 126.969C350.951 153.182 298.44 184.385 249.103 220.186C200.156 255.312 157.725 298.73 123.727 348.479C107.071 373.654 93.4289 400.7 83.0803 429.061C77.8576 443.422 73.4475 458.065 69.8694 472.922C68.0305 480.402 66.4826 487.93 65.0315 495.555C63.5793 503.179 62.4182 510.829 61.257 518.55C60.5549 510.78 60.3127 502.962 60.216 495.119C60.1194 487.276 60.5061 479.433 61.0393 471.567C62.1496 455.777 64.4553 440.095 67.9348 424.655C75.0412 393.453 86.5608 363.426 102.146 335.48C117.821 307.491 136.796 281.486 158.664 258.021C169.503 246.256 181.019 235.17 192.899 224.519C204.779 213.868 217.263 203.968 229.989 194.455C281.13 157.279 336.86 126.874 395.794 103.997C453.97 80.9395 514.339 63.8673 575.971 53.0435ZM54.0227 695.303C52.8088 704.146 51.177 712.863 49.5529 721.533L49.1848 723.504L43.7883 751.316C40.2317 769.761 36.7727 788.061 34.1106 806.264C31.341 823.966 30.0461 841.867 30.2395 859.784C30.3703 868.028 31.3928 876.232 33.2883 884.256C34.1565 887.842 35.3469 891.342 36.8449 894.713L37.2385 895.547C37.4826 896.06 37.7326 896.587 37.9817 897.134L38.5871 898.223L39.4338 899.675C40.2561 901.03 41.3215 902.676 42.3859 904.081C46.6828 909.952 52.1233 914.892 58.3791 918.605C65.1526 922.688 72.4895 925.755 80.1535 927.706C97.094 931.853 114.525 933.645 131.954 933.031C150.333 932.59 168.675 931.151 186.9 928.723C196.166 927.585 205.457 926.302 214.796 924.898L217.917 924.428L217.941 924.424C226.239 923.175 234.566 921.922 243.006 920.783C234.635 925.455 226.071 929.618 217.264 933.466C208.457 937.315 199.577 940.729 190.505 944.021C172.164 950.498 153.246 955.207 134.01 958.084C129.171 958.762 124.187 959.319 119.228 959.731C114.268 960.142 109.236 960.287 104.155 960.287C93.7873 960.348 83.4406 959.334 73.2824 957.261C62.5012 955.062 52.1262 951.199 42.5305 945.812C32.4846 940.005 23.7395 932.194 16.8361 922.864C15.0969 920.481 13.4816 918.008 11.9973 915.457L10.9807 913.666L9.91622 911.657C9.21505 910.325 8.58614 908.97 7.98165 907.614C5.67989 902.359 3.91231 896.885 2.70626 891.276C0.573445 880.864 -0.304485 870.235 0.0929759 859.614C0.435749 849.57 1.49532 839.564 3.2629 829.671C4.90841 819.988 7.15841 810.306 9.69845 801.035C20.2893 764.178 35.1662 728.692 54.0227 695.303ZM446.918 893.792C445.455 893.635 444.001 893.402 442.564 893.09L442.548 893.086C441.174 892.724 439.799 892.362 438.426 891.952C435.722 891.103 433.092 890.035 430.562 888.758L429.901 887.705C428.699 885.793 427.504 883.892 426.355 881.978C425.218 880.087 424.124 878.183 423.111 876.243C418.794 867.938 414.949 859.395 411.594 850.657L411.058 849.303L410.469 847.81L409.45 845.217L409.427 845.158C406.853 838.602 404.342 832.203 401.577 826.161C399.871 822.394 397.957 818.725 395.843 815.171C396.013 812.75 396.085 810.329 396.158 807.618V803.625V799.364C396.941 799.471 397.719 799.603 398.492 799.759C399.154 799.892 399.811 800.043 400.464 800.211C401.843 800.599 403.199 801.058 404.577 801.567C407.262 802.59 409.86 803.829 412.344 805.271C414.833 809.442 417.087 813.749 419.094 818.172C422.095 824.729 424.661 831.257 427.166 837.629C427.954 839.635 428.736 841.622 429.523 843.589C432.609 851.657 436.147 859.544 440.119 867.214C442.019 870.892 444.194 874.42 446.627 877.768L446.772 885.417L446.918 893.792ZM354.6 843.602C353.931 843.346 353.254 843.087 352.512 842.864C352.361 843.075 352.218 843.282 352.08 843.488C351.886 843.779 351.702 844.066 351.518 844.353C351.184 844.875 350.851 845.394 350.455 845.939L348.931 848.964C347.993 850.902 347.185 852.899 346.511 854.944C347.231 856.435 347.872 857.94 348.51 859.437L348.515 859.448L348.518 859.456C349.099 860.82 349.678 862.177 350.31 863.512C352.875 869.128 355.585 874.599 358.246 879.924C360.907 885.25 363.521 890.527 365.94 895.755C367.125 898.369 368.286 900.984 369.351 903.598C370.186 903.945 371.013 904.293 371.842 904.643L371.933 904.683C373.293 905.258 374.662 905.837 376.09 906.415C377.767 907.093 379.525 907.77 381.448 908.439C383.834 904.647 385.759 900.584 387.182 896.336C386.283 894.13 385.341 891.951 384.378 889.801C384.073 889.12 383.765 888.442 383.456 887.766C381.371 883.199 379.173 878.76 377.005 874.382L376.369 873.097L375.521 871.379L375.508 871.353L375.458 871.25C372.842 865.945 370.274 860.735 367.874 855.549C367.552 854.8 367.218 854.06 366.885 853.321C366.364 852.166 365.845 851.017 365.377 849.852C365.089 849.136 364.822 848.414 364.584 847.682C363.611 847.221 362.622 846.775 361.596 846.339C360.736 845.973 359.849 845.614 358.922 845.261L355.874 844.075C355.63 843.989 355.388 843.901 355.148 843.81L354.615 843.608L354.6 843.602ZM250.652 359.953C258.104 352.673 266.201 346.086 274.846 340.274C283.578 334.457 292.724 329.287 302.21 324.806C321.348 315.896 341.485 309.313 362.189 305.199C403.862 297.115 446.61 296.231 488.581 302.585C509.649 305.631 530.441 310.351 550.76 316.697C571.239 323.007 591.123 331.107 610.183 340.903C629.49 350.818 647.675 362.779 664.426 376.583C681.492 390.668 696.474 407.107 708.92 425.406C715.124 434.73 720.515 444.569 725.033 454.817C737.213 482.234 742.086 512.266 739.278 542H708.642C710.823 516.61 706.526 491.036 696.098 467.694C692.24 459.098 687.659 450.847 682.403 443.028C671.701 427.155 658.835 412.856 644.176 400.547C629.287 387.904 613.147 376.817 596.005 367.457C525.173 329.455 444.742 313.109 364.704 320.449C344.615 322.478 324.796 326.616 305.573 332.794C295.909 335.936 286.483 339.762 277.363 344.244C268.054 348.757 259.121 354.011 250.652 359.953Z" fill="#2C6C60"/>
<path fill-rule="evenodd" clip-rule="evenodd" d="M1594.74 759.047L1564.74 811.372H1760.09L1788 759.047H1594.74ZM1509.63 593L1376.6 796.721L1400.79 844.163L1454.28 767.651H1500.79L1397.07 928.814H1458.93L1678.23 593H1509.63ZM1534.74 649.977L1489.16 720.442H1529.16L1573.81 649.977H1534.74ZM1501.02 593H1405.91L1221.49 777.186L1188.47 874.395L1328.7 748.349L1257.77 928.814H1315.91L1399.4 711.605H1365.91L1501.02 593ZM1151.02 593L1134.74 648.814H1280.79L1371.95 593H1151.02ZM1089.16 688.814L1072.88 742.767H1164.05L1031.95 928.814H1098.93L1282.19 688.814H1089.16ZM538 834.395L692.419 593H756.605L673.349 711.605H711.488L627.767 928.814H583.116L644.047 758.116L578.465 853.465L538 834.395ZM768 593L634.279 928.814H672.419L730.558 807.884L738.465 827.419L684.046 928.814H705.442H712.884H730.558L755.674 881.837L771.488 928.814H795.674L807.279 886.837L783.581 830.209L866.372 688.814H783.581L806.372 648.814H872.419L918.93 593H768ZM762.651 735.791L757.07 745.093L766.372 769.279L785.907 735.791H762.651ZM928.93 593L905.674 648.814H970.791L937.07 688.814H869.86L798.465 928.814H1004.05L1079.4 688.814H987.767L1028.7 648.814H1090.56L1140.33 593H928.93ZM899.395 735.326L858 879.047H872.419L912.419 735.326H899.395ZM959.86 878.581L1001.72 735.326H1012.88L972.884 878.581H959.86ZM950.093 733.93L945.907 748.349H960.558L965.907 733.93H950.093ZM926.372 813.93L929.628 798.581H944.977L942.186 813.93H926.372ZM912.419 860.674L908.232 879.047H923.349L928 860.674H912.419Z" fill="#C82E2E"/>
</svg>
