<svg viewBox="0 0 278 107" xmlns="http://www.w3.org/2000/svg">
<path d="M0 105.286C0 106.229 0.628571 106.857 1.57143 106.857H3.3C4.24286 106.857 4.87143 106.229 4.87143 105.286V10.5286H5.34286L64.1143 105.286C64.9 106.7 65.8429 106.857 66.7858 106.857H68.2C69.1429 106.857 69.7715 106.229 69.7715 105.286V1.57143C69.7715 0.628564 69.1429 0 68.2 0H66.4715C65.5286 0 64.9 0.628564 64.9 1.57143V96.3286H64.4286L5.65715 1.57143C4.87143 0.157141 3.92857 0 2.98572 0H1.57143C0.628571 0 0 0.628564 0 1.57143V105.286ZM275.686 106.857C276.629 106.857 277.257 106.229 277.257 105.286V103.871C277.257 102.929 276.629 102.3 275.686 102.3H216.129V102.143L276.472 5.18571C277.1 4.24285 277.257 3.77143 277.257 2.98571V1.57143C277.257 0.628564 276.629 0 275.686 0H213.772C212.829 0 212.2 0.628564 212.2 1.57143V2.98571C212.2 3.92857 212.829 4.55714 213.772 4.55714H271.129V4.71428L210.943 101.514C210.314 102.457 210 103.086 210 103.871V105.286C210 106.229 210.629 106.857 211.572 106.857H275.686ZM178.902 105.286C179.374 106.071 179.06 106.857 178.117 106.857H175.288C174.345 106.857 173.874 106.386 173.402 105.6L143.388 55H143.231L113.06 105.6C112.588 106.386 112.117 106.857 111.174 106.857H108.502C107.56 106.857 107.245 106.071 107.717 105.286L140.56 50.4429L111.331 1.57143C110.86 0.785714 111.174 0 112.117 0H114.945C115.888 0 116.36 0.47142 116.831 1.25713L143.231 45.8857H143.388L169.945 1.25713C170.417 0.47142 170.888 0 171.831 0H174.502C175.445 0 175.76 0.785714 175.288 1.57143L146.06 50.4429L178.902 105.286Z" fill="black"/>
</svg>
